<?xml version="1.0" encoding="utf-8"?>
<!-- Generator: Adobe Illustrator 17.1.0, SVG Export Plug-In . SVG Version: 6.00 Build 0)  -->
<!DOCTYPE svg PUBLIC "-//W3C//DTD SVG 1.1//EN" "http://www.w3.org/Graphics/SVG/1.1/DTD/svg11.dtd">
<svg version="1.1" width="90" height="90" id="Layer_1" xmlns="http://www.w3.org/2000/svg" xmlns:xlink="http://www.w3.org/1999/xlink" x="0px" y="0px"
	 viewBox="0 0 200 200" enable-background="new 0 0 200 200" xml:space="preserve">
<g>
	<path fill="#355070" d="M75.8,126.2c-0.1,3.7,2.6,6.8,6.1,6.8c3.6,0,6.5-2.5,6.6-6.4c0.1-3-2.3-6.2-6.5-6.3
		C78.6,120.1,75.9,122.7,75.8,126.2z"/>
	<path fill="#355070" d="M11.2,109.5c0-26.6,0-53.3,0-79.9c0-1.2,1.6-2.8,2.8-2.8c10.3,0,20.6-0.1,30.8-0.1c28.4,0,56.9,0,85.3,0
		c6.5,0,12.9,0.1,19.4,0.2c1.8,0,2.6,0.6,3.2,2.6c0.2,0.7,0.2,1.6,0.3,2.3c0,0.4,0,0.8,0,1.1c2.2,0,4.4,0,6.5,0c0-0.5,0-0.9-0.1-1.4
		c-0.2-2.3-0.4-4.7-1.7-6.7c-1.8-2.7-4.2-4.5-7.8-4.5c-32,0-64.1,0-96.1-0.1c-0.4,0-0.7-0.1-1.1-0.1c-6.6,0-13.1,0-19.7,0
		c-1.7,0-3.5,0.1-5.2,0.1c-4.8,0.1-9.5,0.2-14.3,0.2c-3.3,0-5.7,1.8-7.5,4.4c-0.9,1.3-1.4,2.6-1.3,4.3c0.1,2.3,0,4.6,0,6.9
		c0,0.6-0.1,1.2-0.1,1.9c0,30.1,0,60.2,0,90.3c0.1,1.7,0.2,3.5,0.2,5.2c-0.2,3.5,1.7,5.8,4.4,7.6c1.5,1.1,3.2,1.5,5.2,1.5
		c16.3,0,32.7,0,49,0.1c1.3,0,2.5,0.1,3.9,0.2c-0.1,0.5-0.1,0.8-0.2,1.2c-0.4,1.8-0.8,3.5-1.3,5.3c-1,3.8-2.1,7.6-3.1,11.4
		c-0.2,0.8-0.8,1.3-1.6,1.3c-1.5,0-3,0.1-4.4,0.2c-1.5,0.1-3.1,0.1-4.6,0.2c-1.1,0.1-2.2,1.5-2.2,2.7c0,1.5,0.7,2.8,2,3
		c1.4,0.2,2.7,0.4,4.1,0.4c10.5,0.1,21,0.1,31.5,0.2c0.3,0,0.6,0,1-0.1c0-2.2,0-4.3,0-6.4c-3.6,0-7.2,0-10.7,0
		c-2.4,0-4.7-0.1-7.1-0.1c-0.9,0-1.1-0.4-0.9-1.2c1.4-5.5,2.8-11.1,4.1-16.6c0.3-1.1,0.9-1.6,2-1.6c3.8,0,7.6,0,11.4-0.1
		c0.4,0,0.8,0,1.1,0c0-2.2,0-4.3,0-6.4c-0.4,0-0.8,0-1.2,0c-14.1,0-28.1,0-42.2,0c-10.4,0-20.8-0.1-31.2-0.2c-1.5,0-2.1-0.5-2.3-2
		c-0.1-0.7-0.2-1.4-0.2-2.1c-0.1-4.8-0.1-9.5-0.2-14.3c0-0.2,0.1-0.5,0.1-0.8c25.8,0,51.5,0,77.3,0c0-2.1,0-4.2,0-6.4
		c-25.8,0-51.5,0-77.3,0C11.2,110,11.2,109.8,11.2,109.5z"/>
	<path fill="#355070" d="M197.7,175.3c0-0.5,0.1-1,0.3-1.5V86.4c0-0.4-0.1-0.8-0.1-1.3c-0.1-1.8-0.2-3.5-0.3-5.3
		c-0.1-2-0.7-3.8-2.3-5.1c-2-1.7-4.1-2.9-7-2.9c-6.6,0.2-13.3,0.1-19.9,0.1c-8.3,0.1-16.6,0.3-24.8,0.2c-3.1,0-5.4,1-7.5,3.1
		c-1.1,1.1-1.8,2.3-1.9,3.8c-0.2,3.4-0.5,6.8-0.5,10.2c0,27.7,0.1,55.3,0.1,83c0,1.5,0.4,2.8,1.1,4c1.8,2.9,4.2,4.8,7.8,4.9
		c2.5,0,5,0.2,7.5,0.2c1.6,0,3.2,0.1,4.8,0.1h36.4c2.2-0.9,4.2-2.3,5.5-4.1c0.1-0.2,0.3-0.5,0.4-0.7
		C197.4,176.2,197.6,175.8,197.7,175.3C197.7,175.3,197.7,175.3,197.7,175.3z M141.4,78.8c0.3-0.3,0.7-0.5,1.1-0.5
		c15.1,0,30.2,0.1,45.3,0.2c2.8,0,3.4,0.7,3.8,3.6c0.1,0.8,0,1.6,0,2.5h-51.8C140.1,82.6,139.7,80.4,141.4,78.8z M191.5,91.2V149
		H140V91.2H191.5z M188.6,174.9c-13.1,0-26.1,0-39.2-0.1c-2.1,0-4.2-0.1-6.3-0.2c-1.8-0.1-2.6-0.7-2.9-2.6c-0.1-0.9-0.2-1.9-0.2-2.8
		c0-4.5,0-8.9,0-13.5h51.6c0,0.3,0.1,0.6,0.1,0.9c0,5.1,0,10.2,0,15.3C191.6,173.1,189.8,174.9,188.6,174.9z"/>
	<path fill="#355070" d="M101.5,59.1c25.8,0,51.5,0,77.3,0c0,2.1,0,4.2,0,6.3c2.2,0,4.3,0,6.2,0c0-5.4,0-10.7,0-16
		c0-4.2-2-7.2-5.7-9c-0.7-0.3-1.5-0.7-2.3-0.7c-19.2-0.1-38.5-0.1-57.7-0.1c-5.2,0-10.4,0.1-15.6,0.2c-3.7,0.1-6.1,2.2-7.7,5.3
		c-0.4,0.7-0.6,1.7-0.6,2.5c-0.1,2.9-0.2,5.7-0.2,8.6C95.1,92.9,95,129.6,95,166.3c0,0.3,0,0.7,0.1,1c1.9,4.5,4.3,7.3,9.6,7.4
		c7.3,0.1,14.6,0.1,21.9,0.2c0.2,0,0.3,0,0.4-0.1c0-2.1,0-4.2,0-6.3c-0.5,0-0.8,0-1.2,0c-7-0.1-14.1-0.2-21.1-0.2
		c-1.1,0-2-0.3-2.4-1.2c-0.3-0.7-0.7-1.5-0.7-2.3c-0.1-5.2,0-10.3,0-15.6c8.5,0,17,0,25.5,0c0-2.3,0-4.5,0-6.8c-8.5,0-17,0-25.5,0
		C101.5,114.6,101.5,86.9,101.5,59.1z M101.3,52.5c0.1-1.3,0.1-2.6,0.3-3.9c0.3-1.8,1.2-2.5,3-2.5c7.7-0.1,15.4-0.2,23-0.2
		c14.7,0,29.5,0,44.2,0.1c1.3,0,2.6,0.1,3.8,0.2c1.6,0.1,2.7,1.1,2.9,2.6c0.1,1.2,0,2.3,0,3.7C152.9,52.5,127.2,52.5,101.3,52.5z"/>
	<path fill="#355070" d="M165.8,158.8c-3.5,0.1-6.3,2.1-6.3,6.8c-0.1,3.3,2.7,5.8,6.3,5.9c3.2,0.1,6.2-2.9,6.3-6.2
		C172.3,161.8,169.4,158.7,165.8,158.8z"/>
</g>
</svg>
