<?xml version="1.0" encoding="utf-8"?>
<!-- Generator: Adobe Illustrator 17.1.0, SVG Export Plug-In . SVG Version: 6.00 Build 0)  -->
<!DOCTYPE svg PUBLIC "-//W3C//DTD SVG 1.1//EN" "http://www.w3.org/Graphics/SVG/1.1/DTD/svg11.dtd">
<svg version="1.1" id="Layer_1" width="90" height="90" xmlns="http://www.w3.org/2000/svg" xmlns:xlink="http://www.w3.org/1999/xlink" x="0px" y="0px"
	 viewBox="0 171.9 595.3 518" enable-background="new 0 171.9 595.3 518" xml:space="preserve">
<path fill="#355070" stroke="#355070" stroke-width="2" stroke-miterlimit="10" d="M505.9,213.4c-3.7-3.7-9.6-3.7-13.3,0l-97,97.2
	c-3.7,3.7-3.7,9.6,0,13.3c1.8,1.8,4.2,2.7,6.7,2.7c2.4,0,4.8-1,6.7-2.7l97-97.3C509.5,223.1,509.5,217.1,505.9,213.4z"/>
<g>
	<path fill="#355070" stroke="#355070" stroke-width="2" stroke-miterlimit="10" d="M421.9,349.9c1.8,1.8,4.2,2.7,6.7,2.7
		c2.4,0,4.8-1,6.7-2.7l97.2-97.2c3.7-3.7,3.7-9.6,0-13.3c-3.7-3.7-9.6-3.7-13.3,0l-97.2,97.2C418.2,340.2,418.2,346.2,421.9,349.9z"
		/>
	<path fill="#355070" stroke="#355070" stroke-width="2" stroke-miterlimit="10" d="M440.6,403.5l120.7-120.7
		c3.7-3.7,3.7-9.6,0-13.3s-9.6-3.7-13.3,0L427.3,390.2c-14.8,14.8-37.6,18.8-56.5,9.6c-3.8-1.8-8.3-1-11,2.2l-41,46.2l0,0l0,0
		L141.6,648l-0.1,0.1c-0.5,0.7-1.1,1.2-1.6,1.9c-11.7,11.7-30.7,11.7-42.4,0c-5.7-5.7-8.8-13.2-8.8-21.2s3.1-15.5,8.8-21.2
		c0.5-0.5,1.1-1.1,1.9-1.6l0.1-0.1l110.8-98.3c3.8-3.4,4.2-9.4,0.8-13.2s-9.4-4.2-13.2-0.8L87,591.8c-1.1,1-2,1.8-2.9,2.7
		c-9.2,9.2-14.3,21.5-14.3,34.5s5,25.3,14.3,34.5c9.5,9.5,22,14.3,34.5,14.3s25-4.8,34.5-14.3c1-1,1.8-1.9,2.7-2.9l135-152.1
		l135,152.1c1,1.1,1.8,2,2.7,2.9c9.5,9.5,22,14.3,34.5,14.3c12.5,0,25-4.8,34.5-14.3c19-19,19-49.9,0-68.9c-1-1-1.9-1.8-2.9-2.7
		L339,453.8l30.4-34.2C394,428.3,421.9,422.3,440.6,403.5z M481.9,605.8l0.1,0.1c0.7,0.5,1.2,1.1,1.9,1.6
		c11.7,11.7,11.7,30.7,0,42.4c-11.7,11.7-30.7,11.7-42.4,0c-0.5-0.5-1.1-1.2-1.6-1.9l-0.1-0.1L303.2,494.2l23.4-26.4L481.9,605.8z"
		/>
	<path fill="#355070" stroke="#355070" stroke-width="2" stroke-miterlimit="10" d="M213.2,421.1c0,0,34.9,39.3,35.3,39.8
		c1.9,2,4.5,3.1,7.1,3.1c2.2,0,4.5-0.8,6.3-2.3l83.4-74.1c3.1-2.7,4.1-7.3,2.2-11c-9.1-19-5.2-41.7,9.6-56.5l120.6-120.7
		c3.7-3.7,3.7-9.6,0-13.3c-3.7-3.7-9.6-3.7-13.3,0L343.8,306.8c-18.8,18.8-24.9,46.6-16.2,71.2l-37.1,32.9L255,379.2
		c18.5-36.3,11.7-80.3-17.5-109.7c-29.1-29.1-62.8-49.5-94.9-57.6c-33.4-8.4-62.1-2.9-80.9,15.9c-18.6,18.6-24.3,47.3-15.9,80.9
		c8,32.1,28.5,65.8,57.6,94.9C132.8,432.8,177,439.6,213.2,421.1z M75,241.1c13.7-13.9,36.2-17.7,62.9-10.9
		c28.8,7.2,59.4,26,86.2,52.7c25,25,29.5,63.5,11,93.5c-2.4,3.9-1.6,8.8,1.8,12l39.7,35.2l-20.3,17.9l-34.1-38.5
		c-3-3.4-8-4.1-12-1.8c-30,18.5-68.5,14-93.5-11C90,363.6,71.4,333,64,304.2C57.4,277.3,61.3,254.9,75,241.1z"/>
</g>
<line fill="#355070" stroke="#355070" stroke-width="20" stroke-miterlimit="10" x1="281.1" y1="434.8" x2="197.9" y2="506"/>
</svg>
