	<svg xmlns="http://www.w3.org/2000/svg"   width="0.28in" height="0.28in"
									view-box="0 0 28 28"
									>
									<path id="Imported Path"  fill="#CCD3D9" stroke="#CCD3D9" stroke-width="0" d="M 10.89,0.00
										C 10.89,0.00 1.56,0.00 1.56,0.00
											1.14,0.00 0.75,0.16 0.46,0.46
											0.16,0.75 0.00,1.14 0.00,1.56
											0.00,1.56 0.00,10.89 0.00,10.89
											0.00,11.30 0.16,11.70 0.46,11.99
											0.75,12.28 1.14,12.44 1.56,12.44
											1.56,12.44 10.89,12.44 10.89,12.44
											11.30,12.44 11.70,12.28 11.99,11.99
											12.28,11.70 12.44,11.30 12.44,10.89
											12.44,10.89 12.44,1.56 12.44,1.56
											12.44,1.14 12.28,0.75 11.99,0.46
											11.70,0.16 11.30,0.00 10.89,0.00 Z
										M 26.44,0.00
										C 26.44,0.00 17.11,0.00 17.11,0.00
											16.70,0.00 16.30,0.16 16.01,0.46
											15.72,0.75 15.56,1.14 15.56,1.56
											15.56,1.56 15.56,10.89 15.56,10.89
											15.56,11.30 15.72,11.70 16.01,11.99
											16.30,12.28 16.70,12.44 17.11,12.44
											17.11,12.44 26.44,12.44 26.44,12.44
											26.86,12.44 27.25,12.28 27.54,11.99
											27.84,11.70 28.00,11.30 28.00,10.89
											28.00,10.89 28.00,1.56 28.00,1.56
											28.00,1.14 27.84,0.75 27.54,0.46
											27.25,0.16 26.86,0.00 26.44,0.00 Z
										M 10.89,15.56
										C 10.89,15.56 1.56,15.56 1.56,15.56
											1.14,15.56 0.75,15.72 0.46,16.01
											0.16,16.30 0.00,16.70 0.00,17.11
											0.00,17.11 0.00,26.44 0.00,26.44
											0.00,26.86 0.16,27.25 0.46,27.54
											0.75,27.84 1.14,28.00 1.56,28.00
											1.56,28.00 10.89,28.00 10.89,28.00
											11.30,28.00 11.70,27.84 11.99,27.54
											12.28,27.25 12.44,26.86 12.44,26.44
											12.44,26.44 12.44,17.11 12.44,17.11
											12.44,16.70 12.28,16.30 11.99,16.01
											11.70,15.72 11.30,15.56 10.89,15.56 Z
										M 23.33,17.11
										C 23.33,17.11 20.22,17.11 20.22,17.11
											20.22,17.11 20.22,20.22 20.22,20.22
											20.22,20.22 17.11,20.22 17.11,20.22
											17.11,20.22 17.11,23.33 17.11,23.33
											17.11,23.33 20.22,23.33 20.22,23.33
											20.22,23.33 20.22,26.44 20.22,26.44
											20.22,26.44 23.33,26.44 23.33,26.44
											23.33,26.44 23.33,23.33 23.33,23.33
											23.33,23.33 26.44,23.33 26.44,23.33
											26.44,23.33 26.44,20.22 26.44,20.22
											26.44,20.22 23.33,20.22 23.33,20.22
											23.33,20.22 23.33,17.11 23.33,17.11 Z" />
								</svg>