<svg   width="30" height="30" viewBox="0 0 30 30" fill="none" 
									xmlns="http://www.w3.org/2000/svg">
									<path 
										d="M29.51 26.83C28.5457 25.9703 27.7015 24.9848 27 23.9C26.2343 22.4025 25.7753 20.7672 25.65 19.09V14.15C25.6567 11.5156 24.7011 8.96947 22.9628 6.98997C21.2245 5.01046 18.8232 3.73385 16.21 3.39999V2.10999C16.21 1.75593 16.0694 1.41637 15.819 1.16601C15.5687 0.915645 15.2291 0.774994 14.875 0.774994C14.521 0.774994 14.1814 0.915645 13.9311 1.16601C13.6807 1.41637 13.54 1.75593 13.54 2.10999V3.41999C10.9503 3.77792 8.57802 5.06225 6.86258 7.0351C5.14713 9.00795 4.20478 11.5356 4.21005 14.15V19.09C4.0848 20.7672 3.62583 22.4025 2.86005 23.9C2.17093 24.9823 1.34024 25.9677 0.390049 26.83C0.28338 26.9237 0.19789 27.0391 0.139266 27.1684C0.0806423 27.2977 0.0502286 27.438 0.0500488 27.58V28.94C0.0500488 29.2052 0.155406 29.4596 0.342942 29.6471C0.530478 29.8346 0.784833 29.94 1.05005 29.94H28.85C29.1153 29.94 29.3696 29.8346 29.5572 29.6471C29.7447 29.4596 29.85 29.2052 29.85 28.94V27.58C29.8499 27.438 29.8195 27.2977 29.7608 27.1684C29.7022 27.0391 29.6167 26.9237 29.51 26.83ZM2.13005 27.94C3.06046 27.0412 3.87965 26.034 4.57005 24.94C5.53466 23.1315 6.09748 21.136 6.22005 19.09V14.15C6.18039 12.978 6.37697 11.8101 6.79809 10.7157C7.21921 9.62125 7.85626 8.62278 8.6713 7.7797C9.48633 6.93661 10.4627 6.26616 11.5422 5.80827C12.6218 5.35037 13.7824 5.1144 14.955 5.1144C16.1277 5.1144 17.2883 5.35037 18.3679 5.80827C19.4474 6.26616 20.4238 6.93661 21.2388 7.7797C22.0538 8.62278 22.6909 9.62125 23.112 10.7157C23.5331 11.8101 23.7297 12.978 23.6901 14.15V19.09C23.8126 21.136 24.3754 23.1315 25.34 24.94C26.0305 26.034 26.8496 27.0412 27.7801 27.94H2.13005Z"
										fill="#CCD3D9" />
								</svg>