<svg xmlns="http://www.w3.org/2000/svg" class="w-full h-12 p-2 " width="0.32in" height="0.32in"
									view-box="0 0 32 32">
									<path id="Imported Path" fill="none" stroke="#CCD3D9" stroke-width="3
									" d="M 19.50,16.00
										C 19.50,16.00 30.00,16.00 30.00,16.00M 19.50,23.00
										C 19.50,23.00 30.00,23.00 30.00,23.00M 19.50,30.00
										C 19.50,30.00 30.00,30.00 30.00,30.00M 3.75,2.00
										C 3.75,2.00 28.25,2.00 28.25,2.00
										29.22,2.00 30.00,2.78 30.00,3.75
										30.00,3.75 30.00,7.25 30.00,7.25
										30.00,8.22 29.22,9.00 28.25,9.00
										28.25,9.00 3.75,9.00 3.75,9.00
										2.78,9.00 2.00,8.22 2.00,7.25
										2.00,7.25 2.00,3.75 2.00,3.75
										2.00,2.78 2.78,2.00 3.75,2.00 Z
										M 3.75,16.00
										C 3.75,16.00 10.75,16.00 10.75,16.00
										11.72,16.00 12.50,16.78 12.50,17.75
										12.50,17.75 12.50,28.25 12.50,28.25
										12.50,29.22 11.72,30.00 10.75,30.00
										10.75,30.00 3.75,30.00 3.75,30.00
										2.78,30.00 2.00,29.22 2.00,28.25
										2.00,28.25 2.00,17.75 2.00,17.75
										2.00,16.78 2.78,16.00 3.75,16.00 Z" />
								</svg>